<svg xmlns="http://www.w3.org/2000/svg" viewBox="0 0 180 180" width="180" height="180" fill="none">
  <rect width="180" height="180" rx="36" fill="#071B45"/>
  <polygon points="112,45 56,22 24,36 82,60" fill="#FF5A14"/>
  <polygon points="84,60 112,45 124,51 98,66" fill="#050C18"/>
  <path d="M99 77C88 65 72 58 54 58C27 58 7 79 7 106V139C7 158 21 172 41 172H47V129H40V98C40 88 47 81 57 81C67 81 74 87 74 97C74 99 74 101 73 103L99 114C104 106 107 97 107 88C107 84 104 80 99 77Z" fill="#FF5A14"/>
  <circle cx="58" cy="103" r="16" fill="#050C18"/>
  <path d="M86 119C79 128 68 134 56 134C49 134 43 132 37 128V150C44 153 51 155 59 155C77 155 93 148 105 136L86 119Z" fill="#FF5A14"/>
  <path d="M87 83C82 74 73 69 62 69C53 69 45 73 39 80L26 67C35 56 47 50 62 50C82 50 99 61 107 79L87 83Z" fill="#FFFFFF"/>
</svg>
